# xmcd CD database file
#
# Track frame offsets:
#	150
#	18907
#	36837
#
# Disc length: 690 seconds
#
# Revision: 0
# Processed by: cddbd v1.5PL3 Copyright (c) Steve Scherf et al.
# Submitted via: CDex 1.51
#
DISCID=1902b003
DTITLE=BAD MOON RISING - Blood On The Streets
DYEAR=1993
DGENRE=Hard Rock
TTITLE0=Blood On The Streets
TTITLE1=Sweet Satisfaction
TTITLE2=Can't Wait Until Tomorrow
EXTD=YEAR: 1993
EXTT0=
EXTT1=
EXTT2=
PLAYORDER=
